<svg width="249" height="180" viewBox="0 0 249 180" fill="none" xmlns="http://www.w3.org/2000/svg">
<mask id="mask0" mask-type="alpha" maskUnits="userSpaceOnUse" x="0" y="0" width="249" height="180">
<rect width="248.727" height="180" fill="#C4C4C4"/>
</mask>
<g mask="url(#mask0)">
<g filter="url(#filter0_dd)">
<path d="M136.035 8.24097C104.637 9.12365 74.8142 21.3091 45.797 33.3113C37.297 36.8308 28.047 41.046 24.2601 49.4128C18.1072 63.012 29.858 78.2308 29.0706 93.1204C28.5757 102.202 23.4277 110.411 21.9954 119.391C19.4608 135.194 29.2469 151.093 42.8049 159.632C56.363 168.171 72.9582 170.448 88.9834 170.437C105.009 170.426 121.011 168.328 137.025 168.941C155.124 169.652 173.35 173.83 191.175 170.62C209 167.411 226.934 153.491 226.334 135.433C225.959 124.089 218.46 113.912 218.003 102.572C217.369 86.6013 228.501 73.1554 226.683 56.7622C225.468 45.7474 220.117 32.1743 211.201 24.9708C194.047 11.1396 156.526 7.66499 136.035 8.24097Z" fill="url(#paint0_linear)"/>
</g>
<path d="M165.466 136.076C166.328 136.098 167.183 136.235 168.009 136.483L169.665 134.766L173.042 136.8L172.285 139.067C172.883 139.686 173.395 140.384 173.807 141.142L176.195 141.097L177.131 144.934L174.999 146C174.977 146.862 174.84 147.717 174.592 148.542L176.309 150.198L174.274 153.575L172.008 152.819C171.388 153.417 170.69 153.929 169.933 154.34L169.978 156.725L166.141 157.664L165.075 155.532C164.213 155.511 163.358 155.374 162.532 155.126L160.876 156.843L157.499 154.808L158.256 152.546C157.658 151.926 157.147 151.228 156.735 150.471L154.35 150.516L153.41 146.679L155.542 145.613C155.564 144.751 155.701 143.896 155.949 143.07L154.232 141.414L156.267 138.037L158.529 138.794C159.149 138.196 159.847 137.684 160.604 137.272L160.559 134.888L164.396 133.948L165.462 136.08L165.466 136.076ZM164.457 141.646C163.643 141.845 162.906 142.281 162.34 142.898C161.774 143.516 161.403 144.288 161.276 145.116C161.148 145.944 161.269 146.791 161.623 147.551C161.978 148.31 162.549 148.947 163.265 149.382C163.982 149.817 164.811 150.029 165.648 149.992C166.485 149.955 167.293 149.671 167.968 149.175C168.644 148.679 169.157 147.994 169.443 147.207C169.729 146.419 169.775 145.564 169.575 144.751C169.307 143.661 168.617 142.723 167.657 142.141C166.698 141.559 165.547 141.381 164.457 141.646Z" fill="#DDDDDD"/>
<path d="M164.458 141.646C164.791 141.535 165.14 141.48 165.491 141.483C166.466 141.467 167.416 141.793 168.176 142.403C168.702 142.821 169.12 143.358 169.397 143.969C169.721 144.675 169.85 145.455 169.771 146.228C169.733 146.648 169.628 147.06 169.462 147.448C169.298 147.854 169.07 148.23 168.787 148.563C168.194 149.275 167.388 149.778 166.488 149.998C165.588 150.218 164.641 150.143 163.786 149.784C162.99 149.446 162.312 148.879 161.837 148.156C161.41 147.508 161.164 146.758 161.125 145.983C161.086 145.162 161.285 144.346 161.696 143.634C162.108 142.922 162.717 142.343 163.449 141.968C163.76 141.801 164.097 141.689 164.445 141.634C164.121 141.753 163.804 141.889 163.493 142.041C162.67 142.495 162.021 143.211 161.65 144.075C161.397 144.666 161.285 145.309 161.325 145.951C161.371 146.688 161.613 147.4 162.025 148.014C162.484 148.687 163.128 149.213 163.88 149.527C164.688 149.863 165.582 149.931 166.432 149.722C167.282 149.514 168.043 149.039 168.604 148.368C168.874 148.054 169.091 147.698 169.247 147.314C169.405 146.95 169.506 146.565 169.548 146.171C169.625 145.484 169.529 144.79 169.269 144.15C169.008 143.511 168.592 142.946 168.058 142.509C167.33 141.909 166.422 141.571 165.479 141.549C165.137 141.563 164.796 141.596 164.458 141.646Z" fill="#EBEBEB"/>
<path d="M41.0808 78.1756L20.4648 80.0083L21.7002 93.9049L42.3161 92.0722L41.0808 78.1756Z" fill="#DDDDDD"/>
<path d="M41.0745 78.1835C41.021 78.2552 40.9611 78.3219 40.8955 78.3828C40.7653 78.5252 40.5863 78.7083 40.3666 78.9362C39.8865 79.4285 39.2192 80.112 38.3933 80.9502L31.8183 87.5658L31.7654 87.6187L31.7003 87.5739L31.5457 87.4722L23.681 82.2318L21.309 80.6247L20.6702 80.1771C20.5934 80.1297 20.5212 80.0753 20.4546 80.0144C20.5382 80.0498 20.6174 80.0949 20.6906 80.1486L21.3497 80.5555L23.7543 82.1097L31.6474 87.3095L31.8021 87.4112H31.6841L38.2956 80.8362L40.3299 78.867L40.8833 78.3381C40.9972 78.2486 41.0664 78.1753 41.0745 78.1835Z" fill="white"/>
<path d="M21.6913 93.9089C21.6506 93.8763 23.0299 91.8338 24.7753 89.3479C26.5208 86.862 27.9733 84.8724 28.0303 84.8927C28.0872 84.9131 26.6917 86.9637 24.9462 89.4537C23.2008 91.9437 21.7361 93.9373 21.6913 93.9089Z" fill="white"/>
<path d="M34.8535 84.1116C34.8901 84.075 36.5908 85.8286 38.6496 88.0298C40.7083 90.2309 42.3439 92.0414 42.3114 92.0984C42.2788 92.1554 40.574 90.3774 38.5153 88.1762C36.4566 85.9751 34.8128 84.1442 34.8535 84.1116Z" fill="white"/>
<path d="M100.265 23.3216C100.721 20.0097 96.0418 17.2796 92.5346 16.9989C90.8583 16.8606 89.117 17.1169 87.5302 16.5635C84.0881 15.3674 82.7129 10.9203 79.3563 9.50443C76.8459 8.44658 73.9531 9.38644 71.5201 10.6111C69.087 11.8358 66.6824 13.3778 63.9646 13.5527C61.5966 13.7033 59.0293 12.8285 56.9624 13.984C55.4204 14.8425 54.6108 16.6205 53.1908 17.6661C51.7708 18.7118 49.9847 18.9111 48.2596 19.0047C46.5345 19.0983 44.7484 19.1146 43.1779 19.8185C41.6074 20.5223 40.3298 22.1986 40.635 23.8871L100.265 23.3216Z" fill="#DDDDDD"/>
<path d="M84.9072 159.595C85.196 157.516 82.2625 155.807 80.0573 155.628C79.0076 155.547 77.9172 155.706 76.9204 155.36C74.764 154.607 73.9015 151.82 71.798 150.933C70.2234 150.27 68.4129 150.86 66.8871 151.629C65.3614 152.398 63.856 153.362 62.1512 153.472C60.6662 153.565 59.059 153.016 57.7611 153.74C56.7928 154.278 56.2883 155.392 55.3973 156.051C54.5062 156.711 53.3873 156.829 52.3092 156.89C51.231 156.951 50.108 156.959 49.1234 157.406C48.1388 157.854 47.3251 158.9 47.5285 159.965L84.9072 159.595Z" fill="#DDDDDD"/>
<path d="M93.0162 89.0663L79.8866 95.983C79.4499 96.2112 78.9407 96.257 78.4702 96.1106C77.9998 95.9642 77.6064 95.6375 77.3763 95.2019L67.819 77.0272C67.7055 76.8116 67.6355 76.5758 67.6131 76.3332C67.5907 76.0905 67.6163 75.8458 67.6885 75.6131C67.7606 75.3804 67.8779 75.1641 68.0337 74.9767C68.1894 74.7893 68.3805 74.6345 68.5961 74.5209L76.9246 70.1431L86.8684 73.398L93.7851 86.5723C94.0112 87.0055 94.0573 87.5104 93.9133 87.9774C93.7694 88.4444 93.447 88.8357 93.0162 89.0663Z" fill="#FB475D"/>
<path d="M76.9253 70.1318L79.6187 75.2461C79.7242 75.4469 79.8681 75.6248 80.0424 75.7699C80.2166 75.915 80.4178 76.0242 80.6343 76.0915C80.8508 76.1588 81.0785 76.1827 81.3042 76.1619C81.53 76.1411 81.7495 76.076 81.9501 75.9703L86.8691 73.3868L76.9253 70.1318Z" fill="#FB475D"/>
<g opacity="0.2">
<path opacity="0.2" d="M79.9187 75.6606C80.1255 76.0458 80.4576 76.3489 80.8601 76.5198C81.2625 76.6907 81.7112 76.7192 82.132 76.6005L82.3151 76.5516C83.019 76.3279 87.641 74.855 87.6044 74.7614C87.5678 74.6679 86.8842 73.3862 86.8842 73.3862L81.9652 75.9698C81.9652 75.9698 80.6999 76.576 79.9187 75.6606Z" fill="black"/>
</g>
<g opacity="0.3">
<path opacity="0.3" d="M76.9253 70.1318L79.6187 75.2461C79.7242 75.4469 79.8681 75.6248 80.0424 75.7699C80.2166 75.915 80.4178 76.0242 80.6343 76.0915C80.8508 76.1588 81.0785 76.1827 81.3042 76.1619C81.53 76.1411 81.7495 76.076 81.9501 75.9703L86.8691 73.3868L76.9253 70.1318Z" fill="white"/>
</g>
<path d="M43.1766 103.266L42.5801 104.456L44.4348 105.386L45.0314 104.197L43.1766 103.266Z" fill="#263238"/>
<path d="M44.0447 102.901L42.8241 105.342L40.8264 104.341C41.0103 103.434 41.4315 102.591 42.047 101.9L44.0447 102.901Z" fill="#455A64"/>
<path d="M60.1261 97.4849L58.9072 96.9517L58.0755 98.8527L59.2944 99.386L60.1261 97.4849Z" fill="#263238"/>
<path d="M60.5231 98.3397L58.0168 97.2453L58.9119 95.2109C59.8308 95.3456 60.6965 95.7251 61.4182 96.3095L60.5231 98.3397Z" fill="#455A64"/>
<path d="M50.5323 96.5108L49.0793 97.1177L50.0265 99.3853L51.4794 98.7784L50.5323 96.5108Z" fill="#263238"/>
<path d="M51.5883 96.8709L48.5979 98.1199L47.5767 95.6788C48.4455 95.0026 49.4794 94.5713 50.5712 94.4297L51.5883 96.8709Z" fill="#E0083C"/>
<path d="M64.2356 115.352C67.7302 110.082 66.2911 102.977 61.0214 99.4823C55.7516 95.9876 48.6466 97.4267 45.152 102.696C41.6574 107.966 43.0965 115.071 48.3662 118.566C53.636 122.06 60.741 120.621 64.2356 115.352Z" fill="#E0083C"/>
<path d="M63.5771 112.516C65.5533 107.587 63.1601 101.99 58.2318 100.014C53.3035 98.0379 47.7062 100.431 45.7301 105.359C43.7539 110.288 46.1471 115.885 51.0754 117.861C56.0037 119.837 61.601 117.444 63.5771 112.516Z" fill="#FAFAFA"/>
<g opacity="0.4">
<path opacity="0.4" d="M49.7942 117.239C49.7942 117.239 57.4229 122.573 63.0051 115.88C68.8273 108.89 61.0033 101.713 61.0033 101.713C61.0033 101.713 67.4643 107.34 62.1344 114.989C60.808 116.897 58.8429 117.719 57.2764 118.195C53.281 119.416 49.7942 117.239 49.7942 117.239Z" fill="black"/>
</g>
<path d="M55.162 103.194C55.7514 104.476 56.257 105.796 56.6756 107.144C56.8445 107.625 56.9445 108.128 56.9726 108.637C56.9958 109.154 56.8162 109.659 56.4721 110.045C56.2988 110.234 56.0703 110.364 55.819 110.416C55.5678 110.468 55.3066 110.439 55.0725 110.334L55.162 103.194Z" fill="#E0E0E0"/>
<path d="M54.1738 108.324L55.13 101.546L55.7443 108.491L54.8736 109.203L54.1738 108.324Z" fill="#E0083C"/>
<g opacity="0.4">
<path opacity="0.4" d="M55.1292 101.546L55.0559 108.092L55.7435 108.491L55.1292 101.546Z" fill="black"/>
</g>
<path d="M55.9092 108.764C55.995 108.969 56.0181 109.194 55.9757 109.412C55.9332 109.63 55.827 109.831 55.6705 109.989C55.5141 110.146 55.3143 110.254 55.0966 110.298C54.8789 110.342 54.653 110.321 54.4475 110.237C54.2419 110.152 54.066 110.009 53.9419 109.825C53.8179 109.641 53.7513 109.424 53.7505 109.201C53.7497 108.979 53.8149 108.762 53.9377 108.577C54.0605 108.392 54.2354 108.247 54.4404 108.162C54.715 108.047 55.024 108.046 55.2994 108.159C55.5748 108.272 55.7941 108.489 55.9092 108.764Z" fill="#FAFAFA"/>
<path d="M55.6456 108.878C55.7102 109.031 55.7279 109.199 55.6966 109.362C55.6652 109.525 55.5862 109.675 55.4696 109.793C55.3529 109.911 55.2039 109.992 55.0413 110.025C54.8787 110.058 54.7099 110.042 54.5563 109.98C54.4027 109.917 54.2712 109.81 54.1785 109.672C54.0857 109.535 54.036 109.373 54.0354 109.207C54.0349 109.041 54.0836 108.878 54.1754 108.74C54.2672 108.602 54.398 108.494 54.5512 108.43C54.7557 108.345 54.9857 108.344 55.1908 108.428C55.3959 108.512 55.5594 108.674 55.6456 108.878Z" fill="#455A64"/>
<g opacity="0.1">
<path d="M109.893 101.306C105.417 97.1596 97.4833 97.6438 93.5448 102.311C91.9947 104.15 90.9409 106.558 88.8089 107.673C85.554 109.386 81.583 107.225 77.9049 107.539C73.5922 107.905 70.0524 112.283 70.5814 116.575C70.8214 118.512 71.7409 120.575 70.8296 122.3C69.67 124.501 66.3134 124.59 64.9015 126.637C63.6281 128.488 64.6208 131.218 66.472 132.496C68.3233 133.773 70.7075 133.932 72.9534 133.83C75.1993 133.729 77.4777 133.423 79.6667 133.912C82.0794 134.457 84.1422 135.946 86.4572 136.857C91.9784 139.071 98.4435 137.838 103.546 134.799C108.648 131.759 112.619 127.113 116.069 122.267" fill="#FB475D"/>
</g>
<path d="M108.806 106.953C105.144 103.381 98.394 103.881 95.3181 107.954C93.4424 110.44 92.3643 114.24 89.2761 114.655C87.1849 114.94 85.2075 113.365 83.0959 113.528C80.2885 113.74 78.5919 117.161 79.312 119.879C80.0322 122.597 82.4245 124.554 84.9349 125.832C93.6296 130.246 105.217 127.911 111.528 120.473" fill="#FB475D"/>
<path d="M191.692 116.046L186.984 109.374L193.107 105.032L197.396 113.743L191.972 115.989" fill="url(#paint1_linear)"/>
<path d="M197.139 112.552L200.472 118.561C200.472 118.561 207.698 117.194 208.422 118.244L197.005 125.12L191.431 115.969L197.139 112.552Z" fill="#FB475D"/>
<g opacity="0.6">
<path opacity="0.6" d="M196.64 120.192C196.55 120.292 196.5 120.422 196.5 120.556C196.5 120.691 196.55 120.821 196.64 120.921C196.738 121.012 196.866 121.062 197 121.062C197.133 121.062 197.262 121.012 197.36 120.921C197.455 120.815 197.508 120.677 197.508 120.534C197.508 120.391 197.455 120.254 197.36 120.148C197.249 120.062 197.109 120.022 196.97 120.036C196.831 120.051 196.702 120.118 196.611 120.225" fill="white"/>
</g>
<g opacity="0.6">
<path opacity="0.6" d="M197.007 125.12L196.482 124.176L207.626 117.939C207.626 117.939 208.269 117.853 208.44 118.244L197.007 125.12Z" fill="white"/>
</g>
<path d="M174.257 92.3302L188.88 115.31L196.875 109.874L183.408 82.187" fill="#263238"/>
<path d="M175.443 87.289C175.504 87.3134 175.064 88.2492 174.857 89.482C174.649 90.7148 174.735 91.7401 174.669 91.7482C174.371 90.212 174.646 88.6199 175.443 87.2727V87.289Z" fill="#455A64"/>
<path d="M173.941 87.3542C174.002 87.3542 173.941 88.3633 174.108 89.5839C174.275 90.8045 174.58 91.7565 174.515 91.7769C173.882 90.3943 173.681 88.853 173.937 87.3542H173.941Z" fill="#455A64"/>
<path d="M117.236 92.261L107.206 89.1648C95.1063 104.573 95.9159 121.502 115.393 131.523L126.211 119.407L117.236 92.261Z" fill="#3A3A3A"/>
<path d="M118.215 89.8035C111.795 93.5507 108.601 101.44 109.382 109.17C110.241 117.641 115.839 125.901 126.101 128.183L195.076 114.394C197.923 113.825 200.621 112.67 202.998 111.004C205.375 109.337 207.38 107.195 208.886 104.713C210.392 102.231 211.366 99.4631 211.746 96.5849C212.126 93.7067 211.904 90.7809 211.095 87.9929C209.591 82.8155 206.15 78.4166 201.487 75.7107C196.824 73.0048 191.297 72.2001 186.056 73.4638L118.215 89.8035Z" fill="url(#paint2_linear)"/>
<path d="M126.101 128.175L117.003 148.86C117.003 148.86 159.928 144.722 158.097 121.779L126.101 128.175Z" fill="#FB475D"/>
<path d="M150.7 81.9758C150.7 81.9758 130.06 61.9499 103.833 70.3842L118.224 89.8038L150.7 81.9758Z" fill="#FB475D"/>
<path d="M188.379 73.1709C197.236 79.6807 202.652 105.134 198.384 113.219C223.487 105.875 228.752 84.3312 228.752 84.3312C210.606 67.43 188.379 73.1709 188.379 73.1709Z" fill="#FB475D"/>
<path d="M144.05 99.4055L100.788 108.357C100.788 108.357 100.596 112.584 101.658 112.616C102.545 112.645 134.708 106.843 145.14 104.955C145.541 104.883 145.921 104.724 146.255 104.49C146.588 104.257 146.867 103.953 147.072 103.601C147.277 103.249 147.404 102.857 147.442 102.452C147.481 102.046 147.431 101.637 147.296 101.253C147.069 100.605 146.615 100.062 146.018 99.7224C145.421 99.3831 144.722 99.2705 144.05 99.4055Z" fill="#E0083C"/>
<path d="M187.517 95.4111C187.525 90.1036 182.902 85.7945 177.192 85.7866C171.483 85.7786 166.848 90.0747 166.841 95.3823C166.833 100.69 171.456 104.999 177.166 105.007C182.875 105.015 187.51 100.719 187.517 95.4111Z" fill="#DDDDDD"/>
<path d="M175.639 129.176L172.412 121.677L179.3 118.695L181.697 128.102L175.931 129.176" fill="url(#paint3_linear)"/>
<path d="M181.691 126.881L183.726 133.452C183.726 133.452 191.078 133.607 191.57 134.787L178.957 139.152L175.397 129.046L181.691 126.881Z" fill="#FB475D"/>
<g opacity="0.6">
<path opacity="0.6" d="M179.624 134.254C179.516 134.333 179.44 134.45 179.412 134.581C179.385 134.712 179.406 134.849 179.473 134.966C179.547 135.077 179.661 135.155 179.792 135.185C179.922 135.214 180.058 135.193 180.173 135.124C180.288 135.041 180.368 134.918 180.397 134.779C180.427 134.64 180.403 134.495 180.332 134.372C180.243 134.263 180.115 134.193 179.975 134.177C179.835 134.161 179.695 134.2 179.583 134.286" fill="white"/>
</g>
<g opacity="0.6">
<path opacity="0.6" d="M178.958 139.152L178.64 138.119L190.846 134.319C190.846 134.319 191.493 134.367 191.566 134.786L178.958 139.152Z" fill="white"/>
</g>
<path d="M142.363 71.2114C142.363 71.2114 136.394 83.0308 140.406 85.8016C144.417 88.5723 163.154 102.65 163.154 102.65L172.711 128.173L181.662 124.511L174.204 94.6387L155.374 77.7213L142.363 71.2114Z" fill="#3A3A3A"/>
<path d="M149.724 74.9951L161.263 76.6307L167.179 78.1361L159.078 81.0411L149.724 74.9951Z" fill="#3A3A3A"/>
<path d="M144.211 56.9818L141.985 73.7121C141.985 73.7121 149.382 73.2279 154.598 74.9611C159.814 76.6944 163.02 76.6456 163.02 76.6456L161.93 66.238L165.824 57.6938L167.536 67.6823L175.535 75.9173L180.747 74.7374L175.344 65.6887L171.593 47.2496C171.276 45.7125 170.444 44.33 169.233 43.3315L169.083 43.2094L161.23 38.8315L158.594 38.8844C156.365 38.933 154.145 39.1616 151.954 39.568C150.586 39.8224 149.331 40.4948 148.361 41.4924C147.488 42.4724 146.859 43.6449 146.526 44.9142L144.211 56.9818Z" fill="#FB475D"/>
<path d="M146.96 47.0706C148.49 51.3345 151.436 61.0708 152.868 64.8261C153.308 65.9656 154.044 66.967 155 67.7271L170.868 78.9525L174.529 74.1881L162.637 62.7145L156.225 43.718C155.321 41.1832 151.574 39.808 149.247 41.1629C147.481 42.2085 146.273 45.1176 146.96 47.0706Z" fill="#FB475D"/>
<g opacity="0.4">
<path opacity="0.4" d="M148.235 50.9478C148.235 50.9478 148.642 57.3111 149.118 60.2528C149.594 63.1944 150.521 66.1889 152.629 68.2924C154.737 70.3959 157.764 71.348 160.705 71.9542C159.753 71.2381 158.826 70.5017 157.91 69.7408C156.734 68.7644 155.009 67.8082 154.061 66.6039C152.238 64.2889 151.844 61.3635 150.904 58.5724C150.041 55.9929 149.101 53.5395 148.235 50.964" fill="black"/>
</g>
<g opacity="0.4">
<path opacity="0.4" d="M166.751 63.0888C167.565 59.7565 167.744 56.1476 167.862 52.7178C167.573 53.918 166.837 54.9555 166.381 56.107C166.161 56.6522 165.815 57.6449 165.815 57.6449L166.735 63.0074" fill="black"/>
</g>
<path d="M161.38 23.8916C161.335 24.1987 161.206 24.4874 161.007 24.7258C160.808 24.9642 160.547 25.143 160.253 25.2424C159.919 25.3522 159.553 25.3522 159.223 25.4784C159.054 25.5263 158.906 25.6306 158.804 25.7742C158.702 25.9177 158.652 26.0918 158.662 26.2677C158.719 26.5281 158.959 26.6949 159.154 26.8699C159.35 27.0448 159.529 27.3215 159.415 27.5575C159.301 27.7934 158.914 27.8423 158.719 28.0579C158.63 28.1825 158.586 28.3338 158.594 28.4868C158.602 28.6399 158.662 28.7856 158.764 28.9001C158.974 29.1238 159.217 29.3144 159.484 29.4656C159.753 29.6198 159.951 29.8721 160.037 30.1695" fill="#263238"/>
<path d="M173.449 29.1769C174.344 27.285 173.693 24.9293 172.298 23.3669C170.902 21.8045 168.9 20.9257 166.891 20.3439C166.602 20.2625 166.244 20.2015 166.04 20.4253C165.964 20.5336 165.928 20.6648 165.937 20.7968C165.947 20.9288 166.002 21.0534 166.093 21.1495C166.281 21.3384 166.513 21.4781 166.768 21.5564C165.957 21.1324 165.063 20.8895 164.148 20.8443C163.828 20.8198 163.508 20.8876 163.225 21.0396C163.087 21.1205 162.978 21.2424 162.913 21.3884C162.848 21.5343 162.83 21.6969 162.863 21.8534C162.887 21.9301 162.929 21.9999 162.986 22.0569C163.042 22.1139 163.112 22.1563 163.189 22.1807C163.265 22.205 163.347 22.2106 163.426 22.1968C163.505 22.183 163.58 22.1503 163.644 22.1015C162.773 22.007 161.896 22.2122 161.158 22.6834C160.637 23.017 160.161 23.5947 160.287 24.201C160.42 24.5391 160.572 24.8692 160.743 25.1897C160.958 25.8203 160.645 26.4957 160.405 27.1141C160.007 28.0758 159.867 29.1249 159.998 30.1575C160.066 30.6732 160.247 31.1675 160.529 31.605C160.81 32.0426 161.185 32.4124 161.626 32.6882" fill="#263238"/>
<path d="M160.97 45.1299C160.433 44.9859 159.93 44.736 159.492 44.3947C159.053 44.0535 158.687 43.6279 158.415 43.1429C158.143 42.658 157.971 42.1235 157.909 41.5711C157.847 41.0186 157.896 40.4593 158.053 39.9261L161.788 27.2807C161.994 26.5089 162.352 25.7862 162.842 25.1554C163.332 24.5245 163.944 23.9984 164.64 23.608C165.337 23.2177 166.105 22.9711 166.899 22.8828C167.693 22.7945 168.497 22.8663 169.262 23.0941L169.555 23.1999C170.976 23.7139 172.152 24.7438 172.848 26.0848C173.545 27.4258 173.711 28.9798 173.315 30.438C172.546 33.2494 171.659 36.3497 171.109 37.8104C169.974 40.8334 166.768 40.2068 166.768 40.2068L165.979 42.473C165.634 43.4668 164.926 44.2932 163.997 44.7861C163.068 45.279 161.986 45.4018 160.97 45.1299Z" fill="url(#paint4_linear)"/>
<path d="M166.787 40.1662C165.376 39.6857 164.139 38.7962 163.235 37.6111C163.235 37.6111 163.382 40.1336 166.49 40.9555L166.787 40.1662Z" fill="url(#paint5_linear)"/>
<path d="M166.213 24.9491C165.965 24.4039 165.652 23.2159 165.229 22.7887C164.806 22.3615 164.118 22.5039 163.54 22.6666C163.243 22.7528 162.97 22.9085 162.744 23.1206C162.519 23.3328 162.347 23.5956 162.242 23.8872C161.429 26.0721 161.347 28.1389 160.753 30.2872C160.699 30.4271 160.686 30.5797 160.717 30.7266C160.831 31.0887 161.229 31.2189 161.608 31.2759C162.539 31.4101 163.015 30.7307 163.455 29.9129C163.603 29.4176 163.712 28.9116 163.78 28.3993C163.832 27.6808 164.073 26.9886 164.477 26.3922C164.881 25.7959 165.435 25.3164 166.083 25.002L166.213 24.9491Z" fill="#263238"/>
<path d="M162.311 29.0176C162.27 28.9769 160.448 27.6465 159.764 29.7459C159.08 31.8453 161.33 32.1017 161.355 32.0406C161.379 31.9796 162.311 29.0176 162.311 29.0176Z" fill="url(#paint6_linear)"/>
<path d="M165.404 25.4011C166.438 24.6932 167.504 25.0431 168.216 25.4581C168.928 25.8731 169.53 26.459 170.25 26.8374C170.97 27.2158 171.934 27.346 172.585 26.8374C172.815 26.6321 173 26.3815 173.128 26.1015C173.256 25.8214 173.325 25.5179 173.33 25.2099C173.376 24.6238 173.306 24.0344 173.123 23.4757C172.94 22.917 172.648 22.4001 172.264 21.955C172.065 21.7231 171.755 21.4993 171.475 21.6214C171.129 21.776 171.186 22.2805 171.296 22.6426C171.296 22.6426 167.764 21.3366 165.6 22.0893C163.435 22.842 165.404 25.4011 165.404 25.4011Z" fill="#263238"/>
<path d="M171.289 31.8986C171.247 32.0219 171.16 32.1242 171.044 32.1836C170.928 32.2429 170.794 32.2545 170.67 32.2159C170.608 32.2004 170.55 32.1725 170.499 32.134C170.448 32.0954 170.405 32.047 170.373 31.9915C170.341 31.9361 170.321 31.8748 170.313 31.8113C170.305 31.7478 170.311 31.6834 170.328 31.6219C170.37 31.4981 170.459 31.3955 170.575 31.3355C170.691 31.2756 170.826 31.263 170.951 31.3005C171.013 31.3169 171.071 31.3456 171.121 31.3847C171.172 31.4238 171.214 31.4727 171.246 31.5284C171.277 31.5842 171.297 31.6456 171.304 31.7092C171.312 31.7727 171.306 31.8371 171.289 31.8986Z" fill="#263238"/>
<path d="M166.258 30.4502C166.217 30.5738 166.128 30.6762 166.012 30.7355C165.896 30.7948 165.761 30.8063 165.636 30.7675C165.574 30.7516 165.516 30.7234 165.466 30.6846C165.415 30.6459 165.373 30.5974 165.341 30.542C165.31 30.4866 165.29 30.4254 165.283 30.3621C165.275 30.2988 165.28 30.2347 165.298 30.1735C165.339 30.0501 165.427 29.9475 165.542 29.8874C165.658 29.8274 165.792 29.8148 165.917 29.8521C165.979 29.8681 166.037 29.8964 166.088 29.9354C166.139 29.9743 166.182 30.0231 166.214 30.0789C166.246 30.1347 166.266 30.1963 166.274 30.26C166.282 30.3238 166.276 30.3885 166.258 30.4502Z" fill="#263238"/>
<path d="M167.71 34.4051C168.008 34.4144 168.303 34.4609 168.589 34.5434C168.724 34.5759 168.854 34.5922 168.907 34.5108C168.963 34.383 168.98 34.2414 168.955 34.104C168.955 33.7459 168.927 33.3716 168.915 32.981C168.849 32.0187 168.861 31.0526 168.951 30.0923C169.091 31.0473 169.156 32.0118 169.147 32.977C169.147 33.3838 169.147 33.7419 169.147 34.0999C169.175 34.285 169.136 34.4741 169.037 34.6329C169.003 34.6721 168.96 34.7031 168.912 34.7235C168.864 34.744 168.812 34.7533 168.76 34.7509C168.68 34.7497 168.601 34.7374 168.524 34.7143C168.241 34.6449 167.968 34.541 167.71 34.4051Z" fill="#263238"/>
<path d="M166.083 34.2381C166.165 34.2381 165.973 34.8118 166.311 35.3692C166.649 35.9266 167.259 36.069 167.235 36.1504C167.21 36.2317 167.068 36.2114 166.828 36.1504C166.503 36.0428 166.226 35.8237 166.047 35.5319C165.873 35.253 165.816 34.9168 165.888 34.5961C165.925 34.3357 166.03 34.2218 166.083 34.2381Z" fill="#263238"/>
<path d="M167.981 28.0373C167.879 28.1594 167.395 27.9193 166.76 27.781C166.125 27.6427 165.601 27.6427 165.564 27.4921C165.564 27.4189 165.678 27.3172 165.918 27.2521C166.234 27.1752 166.563 27.1719 166.881 27.2425C167.198 27.313 167.495 27.4555 167.749 27.659C167.952 27.8339 168.025 27.9804 167.981 28.0373Z" fill="#263238"/>
<path d="M172.517 30.0921C172.387 30.1775 172.077 29.9375 171.658 29.7829C171.239 29.6283 170.845 29.5917 170.812 29.4411C170.812 29.372 170.893 29.2743 171.085 29.2173C171.34 29.1603 171.607 29.1797 171.851 29.273C172.096 29.3663 172.307 29.5295 172.46 29.7422C172.566 29.9131 172.594 30.0514 172.517 30.0921Z" fill="#263238"/>
<path d="M142.147 70.6767C138.823 70.514 137.184 73.0203 135.324 73.5248C133.465 74.0293 131.435 74.1188 129.649 73.3946C127.329 72.4507 125.747 70.3146 123.716 68.854C119.648 65.9205 113.606 66.0955 109.708 69.2609C109.619 71.4783 111.515 73.2319 113.35 74.4769C115.185 75.7219 120.266 77.5121 120.929 79.6359C121.418 81.2227 117.992 82.5572 118.854 83.9772C119.717 85.3971 122.569 85.2547 124.144 84.9821C134.079 83.2733 130.592 86.3126 133.668 86.0318C133.668 86.0318 140.109 84.4044 145.158 83.5662" fill="#505050"/>
<path d="M162.926 75.2334C163.38 75.3988 163.76 75.7206 163.999 76.1411C164.238 76.5616 164.319 77.0533 164.228 77.5281L161.477 78.6144L160.851 75.9698L162.926 75.2334Z" fill="#505050"/>
<path d="M139.842 75.2255C139.842 75.2255 145.347 74.6558 148.793 75.8724C152.239 77.0889 156.552 77.9962 158.452 77.569C159.469 77.321 160.378 76.75 161.044 75.9415C161.044 75.9415 155.559 75.2824 152.975 74.4483C151.238 73.8869 147.804 69.9932 141.449 70.933L139.842 75.2255Z" fill="#505050"/>
<path d="M161.897 77.2194C161.701 76.7169 161.398 76.263 161.01 75.8889L161.059 75.954C160.482 75.9793 159.91 76.0624 159.35 76.2022C158.789 76.3466 158.285 76.6589 157.906 77.0973C157.775 77.2363 157.703 77.4195 157.702 77.61C157.729 77.7335 157.781 77.85 157.855 77.9523C157.93 78.0546 158.024 78.1403 158.133 78.204C158.636 78.6577 159.224 79.0075 159.863 79.2333C160.184 79.3407 160.529 79.3529 160.857 79.2685C161.184 79.184 161.481 79.0065 161.71 78.7573C161.863 78.5351 161.96 78.2791 161.992 78.0113C162.025 77.7435 161.992 77.4718 161.897 77.2194Z" fill="#505050"/>
<path d="M158.948 78.7287C158.509 76.9588 156.69 75.8196 154.879 75.5348C153.069 75.25 151.242 75.6203 149.432 75.8522C147.621 76.0841 145.688 76.141 144.065 75.2988C143.55 76.254 143.29 77.3263 143.312 78.4113H144.264C144.464 79.7865 145.721 80.8525 147.076 81.1333C148.431 81.414 149.326 81.4384 150.595 80.8851C151.93 80.2992 153.659 79.4163 154.969 78.9565C156.279 78.4968 157.728 78.2689 159.038 78.7002" fill="#505050"/>
<path d="M174.1 74.9326C174.1 74.9326 175.939 75.3151 176.721 75.486C176.977 75.5429 177.237 75.486 177.494 75.547C178.621 75.7315 179.772 75.7108 180.891 75.486C181.668 75.2011 181.705 76.1939 180.863 76.6211C180.441 76.8553 179.983 77.0163 179.508 77.0971L181.542 78.7246C181.647 78.8092 181.716 78.9295 181.737 79.0623L182.254 82.6427C182.285 82.7901 182.26 82.9436 182.185 83.074C182.11 83.2045 181.99 83.303 181.847 83.3506C181.811 83.3687 181.772 83.3794 181.733 83.3822C181.693 83.3849 181.653 83.3797 181.615 83.3669C181.577 83.354 181.542 83.3337 181.512 83.3071C181.482 83.2806 181.458 83.2484 181.44 83.2123L181.497 83.6924C181.525 83.8575 181.487 84.027 181.39 84.1636C181.293 84.3002 181.146 84.3926 180.981 84.4207C180.815 84.4488 180.646 84.4101 180.509 84.3132C180.373 84.2163 180.28 84.0691 180.252 83.904C180.25 83.8932 180.25 83.8822 180.252 83.8714L179.54 84.2783C179.54 84.2783 179.068 84.7665 178.56 84.0871C178.153 83.5256 176.879 81.296 176.879 81.296C176.879 81.296 171.517 79.0379 171.59 78.1346L174.1 74.9326Z" fill="#FFBE9D"/>
<path d="M180.268 83.8997C180.197 83.6151 180.148 83.3253 180.122 83.0331C180.04 82.5041 179.886 81.7596 179.78 80.9459C179.707 80.539 179.613 80.1525 179.524 79.831C179.469 79.6894 179.367 79.5713 179.235 79.4974L178.86 79.2614C178.603 79.1189 178.362 78.9468 178.144 78.7488C178.431 78.8395 178.705 78.9681 178.958 79.1312L179.345 79.3469C179.516 79.4331 179.651 79.5772 179.727 79.7537C179.844 80.1315 179.938 80.516 180.008 80.9052C180.118 81.7189 180.244 82.4635 180.293 83.0087C180.33 83.3052 180.322 83.6057 180.268 83.8997Z" fill="#EB996E"/>
<path d="M181.455 83.2083C181.369 83.2083 181.235 81.9226 180.906 80.3602C180.866 80.0031 180.75 79.6588 180.564 79.3512C180.359 79.1296 180.139 78.923 179.905 78.7328C179.75 78.6021 179.583 78.485 179.408 78.3829C179.282 78.3137 179.205 78.2974 179.205 78.2812C179.205 78.2649 179.294 78.2567 179.441 78.3056C179.638 78.383 179.825 78.487 179.994 78.6148C180.25 78.7938 180.489 78.9968 180.706 79.221C180.93 79.5468 181.07 79.9227 181.113 80.3155C181.26 80.9861 181.362 81.6657 181.418 82.3498C181.461 82.6339 181.473 82.9216 181.455 83.2083Z" fill="#EB996E"/>
<path d="M177.07 79.8191C177.318 79.8938 177.554 80.0049 177.77 80.1487L178.112 80.3358C178.266 80.4012 178.404 80.4983 178.519 80.6206C178.63 80.7584 178.708 80.9199 178.746 81.0926C178.795 81.2594 178.848 81.4303 178.905 81.6012C179.196 82.4337 179.421 83.2881 179.576 84.1563C179.219 83.3523 178.926 82.521 178.702 81.6703L178.551 81.1617C178.52 81.0145 178.458 80.8758 178.368 80.7549C178.277 80.6506 178.166 80.5649 178.042 80.5026L177.717 80.2911C177.48 80.1659 177.262 80.007 177.07 79.8191Z" fill="#EB996E"/>
<path d="M177.211 75.9499C177.236 75.8685 177.997 76.1655 178.839 76.6578C179.681 77.1501 180.316 77.6628 180.271 77.7157C180.226 77.7686 179.583 77.3088 178.733 76.8409L177.655 76.2143C177.498 76.1431 177.349 76.0544 177.211 75.9499Z" fill="#EB996E"/>
</g>
<defs>
<filter id="filter0_dd" x="1.59448" y="-11.8184" width="236.289" height="194.636" filterUnits="userSpaceOnUse" color-interpolation-filters="sRGB">
<feFlood flood-opacity="0" result="BackgroundImageFix"/>
<feColorMatrix in="SourceAlpha" type="matrix" values="0 0 0 0 0 0 0 0 0 0 0 0 0 0 0 0 0 0 127 0"/>
<feOffset dx="3" dy="3"/>
<feGaussianBlur stdDeviation="4"/>
<feColorMatrix type="matrix" values="0 0 0 0 0.366667 0 0 0 0 0.366667 0 0 0 0 0.366667 0 0 0 0.4 0"/>
<feBlend mode="normal" in2="BackgroundImageFix" result="effect1_dropShadow"/>
<feColorMatrix in="SourceAlpha" type="matrix" values="0 0 0 0 0 0 0 0 0 0 0 0 0 0 0 0 0 0 127 0"/>
<feOffset dx="-5" dy="-5"/>
<feGaussianBlur stdDeviation="7.5"/>
<feColorMatrix type="matrix" values="0 0 0 0 1 0 0 0 0 1 0 0 0 0 1 0 0 0 1 0"/>
<feBlend mode="normal" in2="effect1_dropShadow" result="effect2_dropShadow"/>
<feBlend mode="normal" in="SourceGraphic" in2="effect2_dropShadow" result="shape"/>
</filter>
<linearGradient id="paint0_linear" x1="102.11" y1="5.72711" x2="204.397" y2="118.175" gradientUnits="userSpaceOnUse">
<stop stop-color="#F9F9F9"/>
<stop offset="1" stop-color="#F0EEEE"/>
</linearGradient>
<linearGradient id="paint1_linear" x1="3888.44" y1="4281.04" x2="4078.77" y2="4281.04" gradientUnits="userSpaceOnUse">
<stop stop-color="#FFD4C7"/>
<stop offset="0.42" stop-color="#EAD4D0"/>
<stop offset="1" stop-color="#FAD0BE"/>
</linearGradient>
<linearGradient id="paint2_linear" x1="105.275" y1="66.6209" x2="175.803" y2="120.639" gradientUnits="userSpaceOnUse">
<stop stop-color="#F8F7F7"/>
<stop offset="0.384741" stop-color="#F8F7F7"/>
<stop offset="0.699514" stop-color="#F8F7F7"/>
<stop offset="1" stop-color="#F8F8F8"/>
</linearGradient>
<linearGradient id="paint3_linear" x1="3473.2" y1="4092.61" x2="3642.92" y2="4092.61" gradientUnits="userSpaceOnUse">
<stop stop-color="#FFD4C7"/>
<stop offset="0.42" stop-color="#EAD4D0"/>
<stop offset="1" stop-color="#FAD0BE"/>
</linearGradient>
<linearGradient id="paint4_linear" x1="5719.11" y1="8525.58" x2="6005.07" y2="8525.58" gradientUnits="userSpaceOnUse">
<stop stop-color="#FFD4C7"/>
<stop offset="0.42" stop-color="#EAD4D0"/>
<stop offset="1" stop-color="#FAD0BE"/>
</linearGradient>
<linearGradient id="paint5_linear" x1="1425.98" y1="1305.68" x2="1490.91" y2="1305.68" gradientUnits="userSpaceOnUse">
<stop stop-color="#DEBCB1"/>
<stop offset="0.42" stop-color="#EAD4D0"/>
<stop offset="1" stop-color="#FAD0BE"/>
</linearGradient>
<linearGradient id="paint6_linear" x1="1111.04" y1="1349.45" x2="1159.97" y2="1349.45" gradientUnits="userSpaceOnUse">
<stop stop-color="#FFD4C7"/>
<stop offset="0.42" stop-color="#EAD4D0"/>
<stop offset="1" stop-color="#FAD0BE"/>
</linearGradient>
</defs>
</svg>
